<svg width="40" height="40" viewBox="0 0 40 40" fill="none" xmlns="http://www.w3.org/2000/svg">
<path d="M14.375 20C15.4105 20 16.25 19.1605 16.25 18.125C16.25 17.0895 15.4105 16.25 14.375 16.25C13.3395 16.25 12.5 17.0895 12.5 18.125C12.5 19.1605 13.3395 20 14.375 20Z" fill="#6A7A32"/>
<path d="M20.0038 29.9999C16.4554 29.9999 13.471 27.6929 12.5265 24.5445C12.5001 24.4508 12.4959 24.3522 12.5143 24.2566C12.5328 24.161 12.5733 24.0711 12.6326 23.9939C12.6919 23.9167 12.7685 23.8545 12.8561 23.8121C12.9438 23.7698 13.0401 23.7485 13.1374 23.7499H26.8632C26.9606 23.7485 27.0569 23.7698 27.1445 23.8121C27.2322 23.8545 27.3087 23.9167 27.3681 23.9939C27.4274 24.0711 27.4679 24.161 27.4863 24.2566C27.5047 24.3522 27.5006 24.4508 27.4742 24.5445C26.5374 27.6929 23.5523 29.9999 20.0038 29.9999Z" fill="#6A7A32"/>
<path d="M25.625 20C26.6605 20 27.5 19.1605 27.5 18.125C27.5 17.0895 26.6605 16.25 25.625 16.25C24.5895 16.25 23.75 17.0895 23.75 18.125C23.75 19.1605 24.5895 20 25.625 20Z" fill="#6A7A32"/>
<path d="M20 36.25C28.9746 36.25 36.25 28.9746 36.25 20C36.25 11.0254 28.9746 3.75 20 3.75C11.0254 3.75 3.75 11.0254 3.75 20C3.75 28.9746 11.0254 36.25 20 36.25Z" stroke="#6A7A32" stroke-width="4" stroke-miterlimit="10"/>
</svg>
